<?xml version="1.0" encoding="UTF-8"?>
<svg id="Calque_1" xmlns="http://www.w3.org/2000/svg" version="1.1" viewBox="0 0 1200.7 501.9">
  <!-- Generator: Adobe Illustrator 30.6.0, SVG Export Plug-In . SVG Version: 2.1.4 Build 109)  -->
  <defs>
    <style>
      .st0 {
        fill: #e4572c;
      }

      .st1 {
        fill: #301639;
      }
    </style>
  </defs>
  <g>
    <path class="st0" d="M376.2,228.7c4.9-9.5,11.5-16.8,19.9-21.9,8.4-5.1,17.8-7.7,28.1-7.7s17,1.8,23.8,5.5c6.8,3.6,12.2,8.2,16.3,13.8v-17.3h30.9v121.3h-30.9v-17.7c-3.9,5.7-9.4,10.4-16.3,14.1-6.9,3.7-14.9,5.6-24,5.6s-19.5-2.6-27.9-7.9c-8.4-5.3-15-12.7-19.9-22.2-4.9-9.6-7.3-20.5-7.3-32.9s2.4-23.1,7.3-32.6ZM460,242.6c-2.9-5.3-6.9-9.4-11.8-12.3-5-2.8-10.3-4.3-16-4.3s-10.9,1.4-15.8,4.2c-4.8,2.8-8.7,6.8-11.7,12.1-3,5.3-4.5,11.6-4.5,18.9s1.5,13.7,4.5,19.2c3,5.5,6.9,9.7,11.8,12.6,4.9,2.9,10.1,4.4,15.7,4.4s11-1.4,16-4.3c5-2.8,8.9-6.9,11.8-12.3,2.9-5.3,4.4-11.7,4.4-19.2s-1.5-13.8-4.4-19.2Z"/>
    <path class="st1" d="M562.4,160.4v162h-30.6v-162h30.6Z"/>
    <path class="st1" d="M601.3,181.5c-3.6-3.4-5.4-7.7-5.4-12.8s1.8-9.4,5.4-12.8c3.6-3.4,8.1-5.1,13.5-5.1s9.9,1.7,13.5,5.1c3.6,3.4,5.4,7.7,5.4,12.8s-1.8,9.4-5.4,12.8c-3.6,3.4-8.1,5.1-13.5,5.1s-9.9-1.7-13.5-5.1ZM629.8,201.1v121.3h-30.6v-121.3h30.6Z"/>
    <path class="st1" d="M768.8,213.1c8.9,9.1,13.4,21.9,13.4,38.2v71.1h-30.6v-67c0-9.6-2.4-17-7.2-22.2-4.8-5.2-11.4-7.8-19.7-7.8s-15.1,2.6-20,7.8c-4.9,5.2-7.3,12.6-7.3,22.2v67h-30.6v-121.3h30.6v15.1c4.1-5.3,9.3-9.4,15.7-12.4,6.3-3,13.3-4.5,20.9-4.5,14.4,0,26.1,4.6,35,13.7Z"/>
    <path class="st1" d="M929.7,271h-88.6c.7,8.8,3.8,15.6,9.2,20.6,5.4,5,12,7.4,19.9,7.4,11.4,0,19.5-4.9,24.3-14.7h33.1c-3.5,11.7-10.2,21.3-20.1,28.8-9.9,7.5-22.1,11.3-36.6,11.3s-22.1-2.6-31.4-7.8c-9.3-5.2-16.5-12.5-21.7-22-5.2-9.5-7.8-20.4-7.8-32.8s2.6-23.6,7.7-33.1c5.1-9.5,12.3-16.8,21.5-21.9,9.2-5.1,19.8-7.7,31.7-7.7s21.9,2.5,31,7.4c9.1,5,16.2,12,21.2,21.1,5,9.1,7.6,19.6,7.6,31.4s-.3,8.3-.9,11.8ZM898.8,250.4c-.1-7.9-3-14.2-8.5-18.9-5.5-4.7-12.3-7.1-20.4-7.1s-14,2.3-19.2,6.9c-5.2,4.6-8.4,11-9.5,19.2h57.6ZM894.2,169.2l-50.3,23v-21.9l50.3-26v25Z"/>
    <path class="st1" d="M958.9,228.7c4.9-9.5,11.5-16.8,19.9-21.9,8.4-5.1,17.8-7.7,28.1-7.7s17,1.8,23.8,5.5c6.8,3.6,12.2,8.2,16.3,13.8v-17.3h30.9v121.3h-30.9v-17.7c-3.9,5.7-9.4,10.4-16.3,14.1-6.9,3.7-14.9,5.6-24,5.6s-19.5-2.6-27.9-7.9c-8.4-5.3-15-12.7-19.9-22.2-4.9-9.6-7.3-20.5-7.3-32.9s2.4-23.1,7.3-32.6ZM1042.6,242.6c-2.9-5.3-6.9-9.4-11.8-12.3-5-2.8-10.3-4.3-16-4.3s-10.9,1.4-15.8,4.2c-4.8,2.8-8.7,6.8-11.7,12.1-3,5.3-4.5,11.6-4.5,18.9s1.5,13.7,4.5,19.2c3,5.5,6.9,9.7,11.8,12.6,4.9,2.9,10.1,4.4,15.7,4.4s11-1.4,16-4.3c5-2.8,8.9-6.9,11.8-12.3,2.9-5.3,4.4-11.7,4.4-19.2s-1.5-13.8-4.4-19.2Z"/>
  </g>
  <g>
    <path class="st1" d="M213.1,260.4v21.1l28.2,34.2v-55.3l88.8-115.3c4-5.2,4.7-12,1.8-17.9s-8.7-9.5-15.2-9.5h-178.9c-6.5,0-12.4,3.6-15.2,9.5s-2.2,12.7,1.8,17.9l88.8,115.3Z"/>
    <path class="st1" d="M256.3,273.7l.3,46.6,37.3,48.4h-133.3l49.1-63.7-18.3-22.4-67,87c-4,5.2-4.7,12-1.8,17.9s8.7,9.5,15.2,9.5h178.9c6.5,0,12.4-3.6,15.2-9.5s2.2-12.7-1.8-17.9l-73.8-95.8Z"/>
  </g>
</svg>